<?xml version="1.0" encoding="UTF-8" standalone="no"?>
<!DOCTYPE svg PUBLIC "-//W3C//DTD SVG 1.1//EN" "http://www.w3.org/Graphics/SVG/1.1/DTD/svg11.dtd">
<svg width="100%" height="100%" viewBox="0 0 186 186" version="1.1" xmlns="http://www.w3.org/2000/svg" xmlns:xlink="http://www.w3.org/1999/xlink" xml:space="preserve" xmlns:serif="http://www.serif.com/" style="fill-rule:evenodd;clip-rule:evenodd;stroke-linecap:round;stroke-linejoin:round;stroke-miterlimit:1.5;">
    <g transform="matrix(1,0,0,1,-584.102738,-4589.486928)">
        <g transform="matrix(0.915535,0,0,0.88142,467.885777,2071.91191)">
            <g id="button_cervix_medium">
                <path d="M325,2911.25L325,3011.75C325,3039.484 303.323,3062 276.622,3062L179.867,3062C153.167,3062 131.49,3039.484 131.49,3011.75L131.49,2911.25C131.49,2883.516 153.167,2861 179.867,2861L276.622,2861C303.323,2861 325,2883.516 325,2911.25Z" style="fill:rgb(248,176,237);"/>
                <clipPath id="_clip1">
                    <path d="M325,2911.25L325,3011.75C325,3039.484 303.323,3062 276.622,3062L179.867,3062C153.167,3062 131.49,3039.484 131.49,3011.75L131.49,2911.25C131.49,2883.516 153.167,2861 179.867,2861L276.622,2861C303.323,2861 325,2883.516 325,2911.25Z"/>
                </clipPath>
                <g clip-path="url(#_clip1)">
                    <g transform="matrix(0.275899,0,0,0.381717,141.90033,2875.296283)">
                        <path d="M54.128,99.115C63.176,91.201 76.681,79.399 120.54,84.174C166.418,89.17 166.297,119.59 242.599,93.782C304.786,72.748 313.895,69.725 381.618,93.169C456.511,119.094 460.503,91.218 498.455,85.241C531.649,80.013 576.23,79.554 589.559,131.486C620.941,253.754 454.067,260.285 485.671,186.587L486.324,185.398C504.743,158.663 520.434,173.922 551.532,163.589C585.491,152.305 571.281,111.953 538.404,103.922C502.316,95.106 471.99,116.689 434.439,132.36C402.337,145.757 410.63,163.762 407.093,191.449C396.869,271.485 340.001,256.216 336.249,372.482C336.143,375.741 325.027,375.661 324.935,372.473C323.935,337.82 336.655,304.031 337.827,301.439C340.882,296.213 342.587,293.126 340.513,295.111C336.305,299.138 322.894,307.788 322.78,288.288C322.413,225.278 371.699,156.847 378.965,147.908C407.243,117.09 410.323,120.374 412.335,117.366C414.229,114.536 411.083,116.436 404.38,118.021C322.754,137.325 238.604,121.372 224.463,118.691C214.432,115.68 214.066,115.742 213.667,116.527C213.23,117.384 213.774,117.418 223.147,123.928C273.252,168.695 302.924,236.373 303.2,289.285C303.267,302.135 294.071,303.629 287.648,296.927C279.714,288.647 301.71,323.583 300.763,373.649C300.738,374.959 292.234,374.597 291.489,374.568C283.064,374.246 303.163,331.898 256.75,269.317L255.914,268.199C235.448,241.552 218.817,219.953 217.407,172.502C216.252,133.615 200.8,138.402 173.668,125.154C153.694,115.401 154.349,114.297 133.494,106.521L132.567,106.25C127.394,105.066 85.946,95.579 66.791,114.798C55.78,125.846 48.447,148.667 64.792,159.037C93.566,177.291 118.764,154.979 139.673,185.398L140.332,186.586C156.162,224.941 119.754,238.002 93.465,233.719C25.358,222.622 18.892,143.618 51.151,102.193C53.798,104.856 55.108,106.986 56.203,103.392C56.986,100.822 55.949,101.129 54.128,99.115Z" style="fill:rgb(240,77,215);"/>
                    </g>
                </g>
                <path d="M325,2911.25L325,3011.75C325,3039.484 303.323,3062 276.622,3062L179.867,3062C153.167,3062 131.49,3039.484 131.49,3011.75L131.49,2911.25C131.49,2883.516 153.167,2861 179.867,2861L276.622,2861C303.323,2861 325,2883.516 325,2911.25Z" style="fill:none;stroke:rgb(240,77,215);stroke-width:9.27px;"/>
            </g>
        </g>
    </g>
</svg>
