<?xml version="1.0" encoding="UTF-8" standalone="no"?>
<!DOCTYPE svg PUBLIC "-//W3C//DTD SVG 1.1//EN" "http://www.w3.org/Graphics/SVG/1.1/DTD/svg11.dtd">
<svg width="100%" height="100%" viewBox="0 0 186 186" version="1.1" xmlns="http://www.w3.org/2000/svg" xmlns:xlink="http://www.w3.org/1999/xlink" xml:space="preserve" xmlns:affinity="https://www.affinity.studio/" style="fill-rule:evenodd;clip-rule:evenodd;stroke-linecap:round;stroke-linejoin:round;stroke-miterlimit:1.5;">
    <g transform="matrix(1,0,0,1,-333.060963,-4409.756796)">
        <g id="button_opain_constipation" transform="matrix(1,0,0,1,-218.041775,-221)">
            <g transform="matrix(0.915535,0,0,0.88142,434.885777,2113.181778)">
                <path d="M276.622,2861C303.323,2861 325,2883.516 325,2911.25L325,3011.75C325,3039.484 303.323,3062 276.622,3062L179.867,3062C153.167,3062 131.49,3039.484 131.49,3011.75L131.49,2911.25C131.49,2883.516 153.167,2861 179.867,2861L276.622,2861Z" style="fill:rgb(248,176,237);stroke:rgb(240,77,215);stroke-width:9.27px;"/>
            </g>
            <g transform="matrix(0.190715,0,0,0.190715,561.130288,4646.654039)">
                <path d="M528.5,595.153C548.64,594.687 540.08,579.079 532.467,578.829C501.626,577.818 306.276,580.696 288.577,577.146C213.497,562.085 196.858,458.516 270.696,422.924C288.02,414.573 288.828,415.689 430.5,415.689C564.32,415.689 564.587,415.886 567.309,414.216C568.616,413.414 579.07,399.287 558.501,399.157C462.196,398.548 370.846,401.03 353.589,397.105C280.546,380.491 265.671,276.262 339.675,242.891C357.004,235.078 357.674,236.115 492.5,236.115C498.222,236.115 521.491,239.272 517.693,225.437C513.147,208.877 454.124,237.439 399.809,193.112C349.788,152.289 350.889,87.608 360.716,74.647C362.886,71.785 367.168,60.237 402.489,62.692C420.611,63.952 428.75,79.547 428.898,89.485C428.917,90.73 423.544,130.408 459.447,143.653C484.326,152.832 541.446,130.221 577.157,181.726C609.444,228.295 586.34,309.156 505.5,309.368C372.18,309.718 368.736,307.465 365.316,313.381C362.344,318.521 364.669,325.853 373.492,325.944C435.04,326.578 561.392,324.364 578.514,327.423C650.766,340.331 670.508,442.943 600.598,479.691C580.229,490.399 579.144,488.969 451.5,488.969C302.568,488.969 302.175,488.741 299.633,490.69C293.496,495.395 296.395,505.167 304.509,505.36C338.835,506.173 534.394,503.648 548.412,506.947C640.99,528.735 629.725,653.239 546.459,667.281C511.827,673.121 468.306,656.845 450.996,686.796C441.915,702.507 450.766,722.265 428.528,731.565C426.738,732.314 390.148,741.238 377.471,721.519C366.217,704.013 374.514,659.83 402.73,629.713C440.745,589.134 487.403,595.13 528.5,595.153Z" style="fill:rgb(242,112,223);"/>
                <path d="M451.5,488.969C302.568,488.969 288.828,415.689 430.5,415.689C564.32,415.689 564.587,415.886 567.309,414.216C568.616,413.414 579.07,399.287 558.501,399.157C462.196,398.548 370.846,401.03 353.589,397.105C280.546,380.491 368.736,307.465 365.316,313.381C362.344,318.521 364.669,325.853 373.492,325.944C435.04,326.578 561.392,324.364 578.514,327.423C650.766,340.331 670.508,442.943 600.598,479.691C580.229,490.399 579.144,488.969 451.5,488.969Z" style="fill:rgb(242,23,209);"/>
            </g>
        </g>
    </g>
</svg>
