<?xml version="1.0" encoding="UTF-8" standalone="no"?>
<!DOCTYPE svg PUBLIC "-//W3C//DTD SVG 1.1//EN" "http://www.w3.org/Graphics/SVG/1.1/DTD/svg11.dtd">
<svg width="100%" height="100%" viewBox="0 0 186 186" version="1.1" xmlns="http://www.w3.org/2000/svg" xmlns:xlink="http://www.w3.org/1999/xlink" xml:space="preserve" xmlns:affinity="https://www.affinity.studio/" style="fill-rule:evenodd;clip-rule:evenodd;stroke-linecap:round;stroke-linejoin:round;stroke-miterlimit:1.5;">
    <g transform="matrix(1,0,0,1,-775.102738,-4630.756796)">
        <g id="button_obgyn_std" transform="matrix(1,0,0,1,224,0)">
            <g transform="matrix(0.915535,0,0,0.88142,434.885777,2113.181778)">
                <path d="M276.622,2861C303.323,2861 325,2883.516 325,2911.25L325,3011.75C325,3039.484 303.323,3062 276.622,3062L179.867,3062C153.167,3062 131.49,3039.484 131.49,3011.75L131.49,2911.25C131.49,2883.516 153.167,2861 179.867,2861L276.622,2861Z" style="fill:rgb(248,176,237);stroke:rgb(240,77,215);stroke-width:9.27px;"/>
            </g>
            <g transform="matrix(0.030432,-0.050326,0.050326,0.030432,523.303112,4750.699135)">
                <path d="M1834.993,1661.922C1771.813,1661.922 1720.603,1610.712 1720.603,1547.542C1720.603,1484.372 1771.813,1433.162 1834.993,1433.162C1898.163,1433.162 1949.373,1484.372 1949.373,1547.542C1949.373,1610.712 1898.163,1661.922 1834.993,1661.922ZM1727.78,1136.55C1698.45,1136.55 1674.67,1112.78 1674.67,1083.45C1674.67,1054.12 1698.45,1030.34 1727.78,1030.34C1757.11,1030.34 1780.88,1054.12 1780.88,1083.45C1780.88,1112.78 1757.11,1136.55 1727.78,1136.55ZM1499.02,1870.54C1441.1,1870.54 1394.14,1823.58 1394.14,1765.66C1394.14,1707.73 1441.1,1660.78 1499.02,1660.78C1556.95,1660.78 1603.91,1707.73 1603.91,1765.66C1603.91,1823.58 1556.95,1870.54 1499.02,1870.54ZM1509.03,1386.04C1536.93,1386.04 1559.55,1408.65 1559.55,1436.55C1559.55,1464.45 1536.93,1487.06 1509.03,1487.06C1481.14,1487.06 1458.52,1464.45 1458.52,1436.55C1458.52,1408.65 1481.14,1386.04 1509.03,1386.04ZM1311.96,1048.1C1272.5,1048.1 1240.52,1016.12 1240.52,976.67C1240.52,937.218 1272.5,905.236 1311.96,905.236C1351.41,905.236 1383.39,937.218 1383.39,976.67C1383.39,1016.12 1351.41,1048.1 1311.96,1048.1ZM1240.52,1909.06C1219.98,1909.06 1203.33,1892.41 1203.33,1871.87C1203.33,1851.33 1219.98,1834.68 1240.52,1834.68C1261.06,1834.68 1277.71,1851.33 1277.71,1871.87C1277.71,1892.41 1261.06,1909.06 1240.52,1909.06ZM1102.76,1398C1039.579,1398 988.374,1346.79 988.374,1283.62C988.374,1220.44 1039.579,1169.23 1102.76,1169.23C1165.93,1169.23 1217.14,1220.44 1217.14,1283.62C1217.14,1346.79 1165.93,1398 1102.76,1398ZM988.374,1679.87C959.044,1679.87 935.267,1656.1 935.267,1626.77C935.267,1597.44 959.044,1573.66 988.374,1573.66C1017.7,1573.66 1041.48,1597.44 1041.48,1626.77C1041.48,1656.1 1017.7,1679.87 988.374,1679.87ZM2377.52,1431.55C2346.52,1407.55 2299.52,1418.55 2283.49,1453.39C2282.41,1455.37 2284.61,1458.17 2280.22,1457.87C2271.44,1457.27 2262.77,1456.4 2254.33,1454.86C2249.54,1454.48 2245.03,1454.18 2240.5,1453.82C2236.15,1453.46 2231.82,1453.05 2227.52,1452.55C2213.52,1450.55 2199.52,1448.55 2186.07,1443.74C2183.03,1442.77 2180.12,1441.72 2177.29,1440.54C2174.56,1439.36 2171.91,1438.05 2169.38,1436.55C2165.71,1434.09 2163.12,1431.64 2161.38,1429.18C2159.64,1426.73 2158.67,1424.28 2158.37,1421.84C2158.27,1416.94 2158.12,1412.06 2157.92,1407.2C2155.11,1339.05 2142.55,1273.41 2121.61,1211.65C2120.52,1208.44 2119.41,1205.24 2118.3,1202.04C2117.73,1198.56 2116.99,1195.16 2116.47,1191.64C2117.23,1187.01 2118.41,1182.6 2119.96,1178.38C2130.52,1158.55 2148.52,1145.55 2167.52,1130.55C2185.52,1116.95 2205.76,1105.43 2225.43,1093.69C2230.34,1090.75 2226.94,1096.31 2228.4,1097.56C2253.52,1120.55 2292.52,1125.55 2322.52,1108.55C2347.52,1094.55 2361.52,1069.55 2363.52,1041.55C2365.52,1001.55 2333.52,964.552 2293.52,959.552C2249.52,953.552 2207.52,987.552 2203.52,1031.55C2202.52,1035.55 2198.52,1035.55 2196.55,1037.17C2190.77,1038.58 2184.97,1040.07 2179.16,1041.55C2161.74,1046.02 2144.22,1050.55 2126.52,1053.55C2101.52,1056.55 2076.52,1061.55 2052.909,1052.34C2048.48,1050.48 2044.33,1048.06 2040.58,1044.92C2036.84,1041.78 2033.5,1037.92 2030.7,1033.2C2026.99,1027.95 2023.22,1022.76 2019.37,1017.62C1985.91,972.895 1947.23,932.308 1904.23,896.762C1899.45,892.812 1894.62,888.925 1889.74,885.091C1884.13,880.821 1881.08,874.687 1879.55,867.994C1878.02,861.302 1878.02,854.052 1878.66,847.538C1880.52,838.552 1882.52,830.552 1885.52,821.552C1887.42,816.252 1889.54,811.032 1891.82,805.871C1894.25,800.577 1896.84,795.341 1899.68,790.011C1912.53,767.736 1927.15,745.368 1939.9,722.221C1942.45,717.592 1944.85,713.563 1947.02,713.084C1985.52,713.552 2023.52,689.552 2031.52,648.552C2039.52,609.552 2017.52,570.552 1980.52,557.552C1940.52,543.552 1891.52,564.552 1878.52,606.552C1870.52,630.552 1873.52,656.552 1887.52,677.744C1888.79,679.755 1896.42,676.318 1893.06,680.832C1879.6,698.885 1866.18,716.975 1849.95,731.923C1845.86,736.461 1842.06,740.719 1838.11,745.025C1834.64,748.902 1831.12,752.752 1827.52,756.552C1815.52,767.552 1803.52,778.552 1789.44,786.874C1785.53,789.41 1781.47,791.651 1777.22,793.419C1772.98,795.188 1768.55,796.483 1763.89,797.126C1758.23,798.07 1752.42,798.361 1746.41,797.906C1740.42,795.591 1734.65,793.091 1728.85,790.66C1670.85,766.353 1608.87,749.632 1544.17,741.739C1541.05,741.358 1537.93,740.999 1534.79,740.659C1529.87,739.148 1525.49,737.129 1521.58,734.678C1517.68,732.228 1514.24,729.346 1511.17,726.111C1508.01,722.055 1505.26,717.834 1502.86,713.476C1500.46,709.118 1498.4,704.622 1496.62,700.014C1494.07,694.283 1492.55,688.667 1491.29,682.984C1490.02,677.302 1489.02,671.552 1487.52,665.514C1481.69,632.869 1479.94,600.212 1477.91,567.351C1477.62,562.656 1477.32,557.958 1477,553.254C1476.76,549.903 1476.39,546.477 1476.33,543.14C1476.27,539.802 1478.39,541.491 1480.41,540.534C1503.52,530.552 1520.52,508.552 1524.52,482.552C1530.52,438.552 1492.52,396.552 1447.52,400.552C1415.52,403.552 1388.52,425.552 1381.52,458.552C1374.52,494.552 1395.52,529.552 1428.65,542.056C1431.03,543.141 1432.52,546.552 1433.31,549.942C1433.23,554.903 1433.13,560.112 1433.06,565.332C1432.66,596.651 1433.51,628.226 1430.5,658.731C1429.87,664.42 1429.08,669.931 1428.09,675.397C1427.11,680.83 1425.94,686.218 1424.52,691.552C1423.52,694.802 1422.46,698.052 1421.27,701.239C1417.7,710.8 1412.99,719.795 1405.38,726.527C1402.3,729.634 1398.88,732.411 1395.05,734.79C1391.22,737.169 1386.98,739.148 1382.25,740.659C1379.12,740.999 1375.99,741.358 1372.87,741.739C1294.67,751.279 1220.46,773.714 1152.41,806.854C1146.74,809.616 1141.11,812.449 1135.45,815.246C1129.86,816.976 1124.55,817.833 1119.46,817.96C1081.57,812.555 1059.36,781.696 1035.05,753.17C1033.06,750.297 1036.04,749.968 1036.81,748.042C1045.52,729.552 1041.52,707.552 1028.52,691.552C1013.52,672.552 987.522,668.552 966.522,677.552C949.522,685.552 937.522,702.552 935.522,721.552C932.522,751.552 957.522,777.552 986.176,779.17C988.055,779.358 989.623,777.298 991.166,779.887C995.663,789.442 1000.22,798.952 1003.52,808.552C1009.52,827.552 1015.52,845.552 1015.4,865.992C1015.23,871.475 1014.55,876.776 1013.26,882.017C1011.96,887.257 1010.05,892.447 1007.42,897.576C1004.39,902.301 1000.78,906.705 996.431,910.735C991.741,914.859 987.111,919.042 982.537,923.286C932.224,969.966 888.786,1023.95 853.911,1083.56C850.542,1089.32 847.253,1095.13 843.992,1100.98C825.502,1117.51 804.064,1123.3 781.254,1123.86C775.551,1124.01 769.763,1123.82 763.914,1123.38C738.334,1119.7 712.822,1113.21 687.133,1107.77C683.226,1106.79 689.232,1106.89 689.26,1106.29C692.522,1069.55 668.522,1033.55 633.522,1021.55C594.522,1007.55 549.522,1029.55 533.522,1067.55C519.521,1100.55 529.522,1138.55 556.522,1161.55C589.522,1189.55 632.522,1181.55 666.522,1159.55C668.522,1158.55 671.522,1159.55 673.995,1160.52C679.707,1162.53 685.42,1164.53 691.104,1166.6C708.152,1172.8 724.922,1179.55 740.522,1188.55C744.522,1191.05 748.647,1193.61 752.685,1196.35C764.797,1204.56 776.121,1214.35 780.917,1228.75C782.24,1232.23 783.161,1235.75 783.512,1239.32C783.862,1242.89 783.642,1246.5 782.682,1250.15C782.17,1253.68 781.489,1257.1 780.837,1260.54C770.347,1301.04 763.392,1342.97 760.322,1385.97C760.042,1389.88 759.795,1393.8 759.581,1397.73C759.816,1400.68 759.243,1403.28 758.109,1405.55C756.977,1407.82 755.283,1409.77 753.28,1411.45C744.353,1416.58 734.954,1419.81 725.251,1421.98C721.992,1422.71 718.697,1423.31 715.219,1423.83C699.32,1426.07 682.832,1426.68 666.285,1427.3C662.147,1427.46 658.011,1427.61 654.052,1427.7C638.522,1419.55 633.522,1400.55 613.522,1396.55C590.522,1391.55 567.522,1399.55 554.522,1419.55C541.522,1440.55 544.522,1465.55 560.522,1483.55C583.522,1508.55 624.522,1505.55 644.522,1475.55C646.522,1473.55 649.522,1474.55 651.655,1474.56C655.348,1475.04 659.053,1475.48 662.761,1475.9C681.3,1477.99 699.906,1479.46 717.342,1482.74C721.126,1483.48 724.88,1484.31 728.583,1485.26C732.287,1486.22 735.939,1487.3 739.522,1488.55C743.022,1490.05 746.272,1491.8 749.343,1493.85C752.413,1495.9 755.303,1498.25 758.084,1500.94C761.331,1504.85 762.29,1508.68 762.682,1512.5C763.074,1516.32 763.49,1520.15 763.931,1524C764.441,1528.09 764.986,1532.17 765.567,1536.24C773.691,1593.22 788.677,1647.99 809.662,1699.68C812.198,1705.93 814.822,1712.14 816.653,1718.62C816.121,1722.85 814.776,1726.65 812.841,1730.13C807.682,1738.84 800.602,1745.45 792.688,1751C784.772,1756.55 775.577,1761.21 764.981,1766.46C750.097,1774.62 734.545,1781.86 718.754,1788.76C713.491,1791.21 708.139,1793.62 702.578,1796.19C689.661,1803.8 676.479,1810.65 663.059,1816.98C658.552,1819.1 654.02,1821.15 649.429,1823.16C615.194,1838.14 560.87,1791.658 523.87,1813.658C494.87,1830.658 480.87,1862.658 484.87,1894.658C489.87,1925.658 511.87,1950.658 541.87,1959.658C590.87,1974.658 640.494,1880.06 672.723,1872.2C678.437,1870.66 684.134,1869.07 689.814,1867.43C706.855,1862.49 723.738,1857.06 740.433,1851.2C745.215,1850.09 749.993,1849.04 754.775,1848.02C773.904,1843.96 793.091,1840.5 812.803,1838.46C818.704,1838.05 824.621,1837.83 830.562,1837.84C836.503,1837.84 842.468,1838.07 848.461,1838.58C852.509,1838.96 856.541,1839.48 860.579,1840.17C864.598,1840.85 868.624,1841.7 872.657,1842.75C877.202,1844.22 881.601,1846.03 885.875,1848.28C890.109,1850.52 894.218,1853.2 898.185,1856.38C902.326,1861.69 906.39,1866.94 910.527,1872.14C926.558,1892.28 943.676,1911.52 961.792,1929.76C966.32,1934.33 970.821,1938.93 974.897,1943.87C976.223,1954.8 975.042,1965.11 972.155,1975C970.71,1979.95 968.829,1984.78 966.553,1989.54C958.045,2003.79 947.852,2017.11 937.207,2030.14C933.659,2034.49 930.061,2038.8 926.458,2043.1C923.522,2046.55 920.522,2050.55 917.522,2049.55C867.522,2033.55 812.522,2068.55 808.522,2120.55C805.522,2159.55 829.522,2194.55 866.522,2206.55C900.522,2216.55 936.522,2204.55 957.522,2174.55C973.522,2150.55 976.522,2121.55 965.522,2095.55C965.522,2094.55 967.522,2092.55 968.082,2091.52C971.914,2088.371 976.02,2085.21 980.203,2082.13C996.931,2069.8 1014.64,2058.93 1034.689,2051.121C1039.76,2049.04 1044.939,2047.19 1050.25,2045.61C1055.56,2044.04 1061.01,2042.73 1066.62,2041.75C1072.21,2040.91 1077.81,2040.45 1083.48,2040.47C1089.11,2040.48 1094.8,2040.97 1100.56,2042.03C1105.33,2043.21 1110.03,2044.76 1114.68,2046.79C1120.63,2049.78 1126.32,2052.89 1132.05,2055.92C1203.28,2093.54 1281.79,2119.24 1364.91,2130.35C1369.28,2130.93 1373.67,2131.47 1378.07,2131.98C1387.41,2136.16 1393.12,2143.39 1397.08,2151.81C1398.4,2154.62 1399.52,2157.55 1400.52,2160.56C1402.72,2167.36 1404.28,2174.24 1405.43,2181.18C1406.01,2184.65 1406.48,2188.15 1406.89,2191.68C1408.16,2199.49 1408.91,2207.64 1409.4,2215.98C1409.64,2220.15 1409.82,2224.38 1409.96,2228.64C1411.94,2246.46 1411.31,2264.68 1410.72,2282.88C1410.6,2286.52 1410.47,2290.12 1409.32,2291.1C1379.52,2301.55 1365.52,2340.55 1381.52,2368.55C1398.52,2399.55 1443.52,2405.55 1467.52,2378.55C1495.52,2348.55 1478.52,2304.55 1445.17,2288.5C1445.56,2284.63 1445.93,2280.75 1446.27,2276.87C1448,2257.47 1449.17,2237.99 1451.2,2218.78C1451.66,2214.74 1452.2,2210.72 1452.84,2206.75C1453.49,2202.77 1454.23,2198.84 1455.12,2194.96C1455.8,2191.38 1456.54,2187.85 1457.37,2184.35C1459.83,2173.86 1463.02,2163.55 1467.52,2153.55C1469.52,2149.55 1472.27,2146.05 1475.47,2143.15C1478.67,2140.24 1482.33,2137.93 1486.13,2136.31C1490.71,2135.84 1495.27,2135.62 1499.83,2135.35C1567.64,2131.41 1632.87,2117.81 1694.14,2095.91C1700.95,2093.47 1707.78,2091.091 1714.89,2089.39C1720.66,2089.601 1726.18,2090.42 1731.52,2091.73C1737.03,2093.361 1742.32,2095.45 1747.6,2098.16C1752.06,2100.36 1756.29,2103.2 1760.41,2106.25C1764.52,2109.3 1768.52,2112.55 1772.52,2115.55C1785.52,2126.55 1795.52,2139.55 1806.52,2153.55C1817.32,2168.25 1826.95,2184.93 1836.82,2201.46C1840.1,2206.97 1842.85,2212 1842,2214.4C1819.52,2249.55 1818.52,2296.55 1848.52,2328.55C1875.52,2357.55 1918.52,2365.55 1953.52,2347.55C1992.52,2327.55 2011.52,2279.55 1996.52,2238.55C1981.52,2198.55 1940.52,2175.55 1899.44,2180.7C1897.66,2180.81 1897.08,2185.09 1894.7,2179.16C1880.38,2143.52 1866.36,2108.07 1860.11,2069.851C1859.16,2063.591 1858.48,2057.28 1858.14,2050.92C1857.94,2044.91 1858.27,2039.28 1858.96,2033.48C1859.95,2028.22 1861.38,2022.98 1863.36,2017.76C1865.54,2013.17 1868.18,2009 1871.26,2005.04C1874.35,2001.15 1877.88,1997.47 1881.93,1994.03C1887.58,1989.73 1893.16,1985.35 1898.67,1980.89C1931.74,1954.11 1962.33,1924.38 1990.02,1892.1C1993.91,1887.57 1997.74,1882.98 2001.52,1878.35C2003.69,1875.22 2006.19,1872.58 2008.95,1870.37C2011.71,1868.16 2014.72,1866.38 2017.93,1864.97C2031.52,1859.55 2045.52,1860.55 2060.52,1864.55C2064.82,1865.65 2069.08,1866.91 2073.31,1868.28C2077.58,1869.66 2081.81,1871.14 2086.05,1872.7C2091.1,1874.38 2096.149,1876.17 2101.21,1878.02C2106.39,1879.99 2111.58,1882.02 2116.89,1884.19C2130.3,1888.78 2143.67,1894.35 2157.07,1900.16C2161.54,1902.1 2166.01,1904.07 2170.48,1906.04C2174.52,1905.55 2176.52,1909.55 2175.52,1912.55C2170.52,1953.55 2201.52,1991.55 2241.52,1995.55C2268.52,1997.55 2293.52,1987.55 2309.52,1964.55C2327.52,1937.55 2327.52,1905.55 2308.52,1878.55C2296.52,1861.55 2279.52,1852.55 2259.52,1849.55C2235.52,1846.55 2213.52,1855.55 2196.41,1870.46C2195.18,1871.23 2192.52,1869.55 2190.24,1867.59C2186.23,1865.28 2182.24,1862.98 2178.27,1860.65C2166.35,1853.65 2154.62,1846.35 2143.28,1837.83C2138.71,1834.61 2134.34,1831.38 2130.09,1828.02C2125.94,1824.75 2121.92,1821.35 2118.07,1817.78C2114.51,1814.64 2111.09,1811.41 2107.84,1808.06C2098.18,1798.02 2090.02,1786.78 2084.659,1773.16C2083.399,1768.56 2082.71,1763.66 2082.74,1758.39C2083.52,1752.68 2085.52,1747.31 2088.51,1742.07C2091.149,1736.64 2093.72,1731.17 2096.22,1725.66C2120.23,1672.78 2137.86,1616.39 2148.12,1557.47C2148.97,1552.56 2149.78,1547.64 2151.13,1542.69C2151.83,1539.62 2153.17,1536.84 2155.37,1534.32C2157.45,1531.44 2160.24,1529.49 2163.34,1527.9C2166.43,1526.22 2169.48,1524.89 2172.5,1523.72C2175.52,1522.55 2178.52,1521.55 2181.52,1520.55C2193.52,1516.91 2206.12,1514.78 2218.96,1513.28C2223.24,1512.78 2227.55,1512.35 2231.87,1511.96C2248.08,1509.83 2266.34,1509.73 2284.77,1509.08C2289.38,1508.92 2286.06,1513.65 2287.85,1516.18C2311.52,1551.55 2366.52,1553.55 2391.52,1515.55C2409.52,1487.55 2404.52,1451.55 2377.52,1431.55Z" style="fill:rgb(240,77,215);fill-rule:nonzero;"/>
            </g>
        </g>
    </g>
</svg>
